<?xml version="1.0" encoding="UTF-8" standalone="no"?>
<!DOCTYPE svg PUBLIC "-//W3C//DTD SVG 1.1//EN" "http://www.w3.org/Graphics/SVG/1.1/DTD/svg11.dtd">
<svg xmlns="http://www.w3.org/2000/svg" version="1.1" viewBox="0.00 0.00 125.00 125.00" transform="rotate(45)">
<path fill="#FA4475" d="
  M 73.23 116.71
  C 65.50 122.39 54.34 120.35 48.79 111.58
  Q 39.85 97.45 31.00 83.30
  Q 22.37 69.50 20.94 66.04
  C 14.77 51.03 18.65 33.00 29.69 21.06
  C 51.98 -3.04 90.40 2.38 104.52 32.24
  Q 114.59 53.52 100.67 75.66
  Q 90.31 92.13 79.97 108.58
  Q 76.26 114.48 73.23 116.71
  Z
  M 80.38 51.21
  A 16.96 16.96 0.0 0 0 63.42 34.25
  A 16.96 16.96 0.0 0 0 46.46 51.21
  A 16.96 16.96 0.0 0 0 63.42 68.17
  A 16.96 16.96 0.0 0 0 80.38 51.21
  Z"
/>
<circle fill="#E13D69" cx="63.42" cy="51.21" r="16.96"/>
</svg>
