<svg xmlns="http://www.w3.org/2000/svg" version="1.1" viewBox="0.00 0.00 270.00 270.00" transform="rotate(45)">
<path fill="#FA4475" d="
  M 132.42 264.37
  C 106.77 220.13 80.27 170.86 61.62 121.85
  C 58.43 113.47 55.45 103.59 53.98 95.75
  Q 52.01 85.25 53.60 73.28
  Q 59.99 38.36 87.06 19.34
  C 132.72 -12.75 195.69 10.91 210.44 64.21
  C 215.10 81.01 213.02 95.90 207.45 113.19
  Q 200.15 135.86 185.46 166.48
  Q 160.63 218.25 133.45 264.48
  Q 132.90 265.42 132.42 264.37
  Z
  M 163.08 85.00
  A 30.08 30.08 0.0 0 0 133.00 54.92
  A 30.08 30.08 0.0 0 0 102.92 85.00
  A 30.08 30.08 0.0 0 0 133.00 115.08
  A 30.08 30.08 0.0 0 0 163.08 85.00
  Z"
/>
<circle fill="#c8365e" cx="133.00" cy="85.00" r="30.08"/>
</svg>
